<?xml version="1.0" encoding="utf-8"?>
<!-- Generator: Adobe Illustrator 19.2.0, SVG Export Plug-In . SVG Version: 6.00 Build 0)  -->
<svg version="1.1" id="Layer_1" xmlns="http://www.w3.org/2000/svg" xmlns:xlink="http://www.w3.org/1999/xlink" x="0px" y="0px"
	 viewBox="0 0 240 142.5" style="enable-background:new 0 0 240 142.5;" xml:space="preserve">
<style type="text/css">
	.st0{fill:#2699fb;}
</style>
<path id="Contactless_icon" class="st0" d="M88.8,142.3c-28.6-2.5-53.8-13.1-70.3-29.5c-9.4-9.4-15-19.5-17.6-31.5
	c-1.2-6.6-1.2-13.4,0-20C4.5,44.7,15.2,30.1,32.1,19c38.6-25.3,97.8-25.2,136,0.3c4.7,3.1,9,6.6,13,10.6
	c5.8,5.7,10.6,12.4,14.2,19.8c0.5,0.5,1.1,0.8,1.8,0.9c2.7,0.6,6.3,2.7,9.2,5.4c2.3,2.1,4,4.4,8.3,10.9c4.3,6.6,24,37,25.2,39
	c0.5,0.8-0.5,2-1.5,2c-0.7,0-1.3-0.5-2.3-2.2c-0.8-1.2-5.8-9-11.2-17.3c-19-29.4-20-30.8-25.3-33.4l-2.8-1.4h-8.2
	c-8.2,0-8.2,0-8.4,0.9c-1.1,4.7-1.3,5.9-1,6.1c0.2,0.1,4.8,2.8,10.3,5.9l10,5.6l-0.6,1.3c-0.3,0.7-0.7,1.3-0.9,1.3
	s-8.6-4.7-18.8-10.4s-19.1-10.5-19.8-10.7c-2.9-0.8-7.3,2.4-7.3,5.3c0,2.9,0.9,3.8,18.7,18.4c11.1,9.1,17.5,14.6,18.5,15.9
	c2.2,3.1,3.9,6.5,5.2,10.1c2.9,7.5,7.6,11.7,15.4,13.7l2.6,0.6l-0.2,1.4c-0.1,0.5-0.2,1.1-0.4,1.6c-0.3,0.4-5.5-1.3-8.4-2.7
	c-4.7-2.2-7.8-5.4-11-10.9c0,0-1.8,0.6-4.1,1.4c-3.9,1.4-4.1,1.5-7.8,5.2c-15.8,15.4-38.4,25.2-65.7,28.6
	C106.3,142.5,97.5,142.7,88.8,142.3L88.8,142.3z M115.9,137.6c11.1-1.3,22-4.1,32.4-8.3c10.7-4.4,20.7-10.6,27.8-17.3l2.8-2.6
	l-7-3.3c-7.5-3.6-8.2-4.2-9.2-7.3c-0.6-2,0.1-4.2,2-6.2l1.5-1.6l-3.2-2.5c-2.6-1.9-3.4-2.8-3.9-4.1c-0.8-2.1-0.5-4.4,0.8-6.2l1-1.4
	l-10.2-1.8c-5.6-1-10.9-2-11.7-2.2c-1.7-0.7-3-2.1-3.5-3.9c-0.2-0.9,4.8-25.4,5.9-28.9c0.8-1.8,2.4-3.2,4.3-3.8
	c1.7-0.3,31.9,5,33.4,5.9c2.4,1.4,3.1,3.6,2.4,7.1l-0.3,1.4h1.7c0.9,0,3.1-0.1,4.8-0.2l3.2-0.2l-1.6-2.9
	c-4.7-8.8-13.3-17.7-23.9-24.7c-6.9-4.3-14.2-7.9-21.8-10.7c-9.8-3.4-20.1-5.7-30.4-6.7c-8.8-0.6-17.6-0.6-26.4,0
	c-12.4,1.2-24.6,4.2-36.2,9C25.9,24.4,9.4,41.8,5.1,61.6C4,66.7,3.9,75.8,4.9,80.5c2.2,10.4,7.1,19.4,15.1,27.8
	c16.2,17.1,41,27.6,70.7,29.9C99.1,138.4,107.5,138.2,115.9,137.6z M110.5,118.9c-1.7-0.7-3-2.2-3.4-4c-0.2-1.1,0-1.9,1.7-5.1
	c6.4-11.8,9.6-25.1,9.4-38.5c0-13.7-2.5-24.4-8.8-37.1c-1-1.8-1.8-3.7-2.4-5.7c0.2-1.6,1-3.1,2.4-4.1c1.9-1,4.2-0.9,5.9,0.4
	c1.2,1.5,2.2,3.2,3,4.9c4.5,9,7.6,18.6,9.1,28.5c1,7.9,1.1,15.8,0.4,23.7c-1.3,10.1-4.2,19.9-8.6,29.1c-2.7,5.6-4.4,7.8-5.8,7.8
	c-0.3,0-0.7,0.1-1,0.2C111.7,119.2,111.1,119.1,110.5,118.9L110.5,118.9z M92.3,109.4c-2.3-0.7-4-3.6-3.4-5.7
	c0.2-0.5,1.3-2.9,2.5-5.4c5-9.9,7.1-21,6.1-32c-0.6-7.9-2.8-15.6-6.4-22.6c-2.7-5.5-2.8-6.3-1.2-8.5c1.8-2.1,5-2.4,7.1-0.7
	c1.3,1.2,5.5,10,7.2,15c5.4,16.4,4.5,34.3-2.3,50.2C98.2,107.8,95.8,110.4,92.3,109.4z M73.4,99.7c-1.5-0.7-2.6-2.1-3-3.7
	c-0.2-0.9,0.1-2,1.9-5.5c6.3-12.8,6.4-25.1,0.2-37.7c-2.7-5.5-2.8-6.6-0.5-8.8c0.8-0.9,2-1.4,3.2-1.3c2.7,0,4.1,1.3,6.4,6.2
	c3.5,7,5.3,14.7,5.2,22.5c0.2,7.8-1.7,15.6-5.3,22.5c-2.2,4.6-3.4,5.8-5.6,6.1C75,100.1,74.2,100,73.4,99.7L73.4,99.7z M55.9,90.7
	c-1.4-0.7-2.4-1.9-2.9-3.4c-0.4-1.5-0.1-2.7,1.6-5.6c2.2-3.7,2.7-5.6,2.7-10.4s-0.5-6.7-2.7-10.4c-0.7-1-1.2-2.1-1.7-3.3
	c-0.7-2.4,1.3-5.4,4-5.9c2.3-0.4,3.8,0.6,5.9,3.9c6.1,9.6,6.1,21.9,0,31.6C60.8,90.5,58.4,91.7,55.9,90.7L55.9,90.7z M186.8,105.4
	c1.3-0.4,2.6-1,3.9-1.5c-0.1-1-0.4-2-0.9-2.9c-1.2-3-1-2.9-5.3-2.1c-4.7,0.9-7.4,0.1-12.5-3.7c-1-0.8-2-1.4-3.2-1.9
	c-0.7,0.2-1.3,0.6-1.8,1.2c-1.3,1.3-1.5,3.4-0.4,4.9c0.9,1.1,13.8,7.2,15.3,7.3C183.5,106.4,185.2,106,186.8,105.4L186.8,105.4z
	 M184.7,95.6c1.9-0.4,2.1-0.5,1.8-1.1c-0.4-0.7-18.1-15.4-19.7-16.3c-1.1-0.8-2.6-0.5-3.3,0.5c0,0,0,0,0,0c-3.1,3.3-2.7,4,5.3,10.1
	C178.4,96.2,179.4,96.6,184.7,95.6L184.7,95.6z M160.9,73.3c0-0.1-2-1.8-4.5-3.9c-6.1-5-7.4-6.9-7.4-10.6c0-3.1,2.1-6.1,5.4-7.8
	c2-0.9,4.2-1.1,6.3-0.6c1.2,0.4,6.5,3.3,13.8,7.5l1.5,0.9l1.3-6.1c1.3-6.2,1.3-7.8,0.1-8.2c-0.4-0.1-7.5-1.4-15.8-2.9
	c-14.7-2.6-16.3-2.7-17-1.6c-0.4,0.6-6,26.6-6,27.7c0,0.6,0.2,1.1,0.6,1.5c0.3,0.3,5.1,1.3,10.6,2.3
	C160.6,73.5,160.9,73.5,160.9,73.3L160.9,73.3z"/>
</svg>
