<?xml version="1.0" encoding="utf-8"?>
<!-- Generator: Adobe Illustrator 19.2.0, SVG Export Plug-In . SVG Version: 6.00 Build 0)  -->
<svg version="1.1" id="Layer_1" xmlns="http://www.w3.org/2000/svg" xmlns:xlink="http://www.w3.org/1999/xlink" x="0px" y="0px"
	 viewBox="0 0 343 343" style="enable-background:new 0 0 343 343;" xml:space="preserve">
<style type="text/css">
	.st0{fill:#7FC4FD;}
	.st1{fill:#2699FB;}
</style>
<path id="Path_189" class="st0" d="M107.2,214.4c10.7,0,15,6.4,6.4,15l-32.2,32.2c23.6,23.6,55.7,38.6,90,38.6
	c64.7,0.1,119.6-47.4,128.6-111.5c0,0,2.1-17.2,21.4-17.2c12.9,0,21.4,8.6,21.4,21.4v4.3C330.2,280.9,259.4,343,171.5,343
	c-47.2,0-90-19.3-122.2-49.3L15,328c-8.6,8.6-15,4.3-15-6.4v-96.5c0-6.4,4.3-10.7,10.7-10.7L107.2,214.4z M235.8,128.6
	c-10.7,0-15-6.4-6.4-15l32.2-32.2c-23.6-23.6-55.7-38.6-90-38.6C106.8,42.8,52,90.3,42.9,154.4c0,0-2.1,17.2-21.4,17.2
	C8.6,171.5,0,162.9,0,150.1v-4.3C12.9,62.2,83.6,0,171.5,0c47.2,0,90,19.3,122.2,49.3L328,15c8.6-8.6,15-4.3,15,6.4v96.5
	c0,6.4-4.3,10.7-10.7,10.7L235.8,128.6z"/>
<path id="Path_260" class="st1" d="M171.5,41.7c71.7,0,129.8,58.1,129.8,129.8s-58.1,129.8-129.8,129.8S41.7,243.2,41.7,171.5
	S99.8,41.7,171.5,41.7C171.5,41.7,171.5,41.7,171.5,41.7z"/>
</svg>
