<?xml version="1.0" encoding="utf-8"?>
<!-- Generator: Adobe Illustrator 19.2.0, SVG Export Plug-In . SVG Version: 6.00 Build 0)  -->
<svg version="1.1" id="Layer_1" xmlns="http://www.w3.org/2000/svg" xmlns:xlink="http://www.w3.org/1999/xlink" x="0px" y="0px"
	 viewBox="0 0 282 68" style="enable-background:new 0 0 282 68;" xml:space="preserve">
<style type="text/css">
	.st0{fill:#2699fb;}
	.st1{fill:#2699fb;;}
	.st2{fill:#2699fb;;}
</style>
<path class="st0" d="M38.1,39.7c0,4.5-0.5,8.1-3.9,11.4c-3.1,2.9-6.8,3.9-10.6,4.2c-3.3,0.3-7.5-0.2-10.3-2.2
	c-3.8-2.7-4.5-6.9-4.5-12V12.4l11.1,0.9v26c0,1.4-0.1,3.3,0.7,4.5c0.8,1.3,2.5,1.8,3.9,1.7c1.3-0.1,2.8-0.6,3.8-1.5
	c1.4-1.4,1.3-3.5,1.3-5.4V14.1l8.6,0.7L38.1,39.7L38.1,39.7z"/>
<polygon class="st0" points="51.8,52.2 41.5,53 41.5,27 51.8,27.3 "/>
<polygon class="st0" points="51.8,24.5 41.5,24.1 41.5,15.1 51.8,16 "/>
<polygon class="st0" points="72.3,50.6 61.9,51.5 61.9,25.1 54.4,24.8 54.4,16.2 79.7,18.3 79.7,25.9 72.3,25.6 "/>
<polygon class="st0" points="0,0.8 108.7,0.8 108.7,66.8 0,66.8 87,55.8 87,11.8 "/>
<path class="st1" d="M222.3,47.8c3.5,14.3,15.7,20.1,29.5,20.1c13.6,0,29.2-6.3,29.2-22.2c0-7.2-3.3-13.4-9.7-16.8
	c-5.7-3-12.3-4-18.5-5.3c-2.5-0.6-7.3-1.2-7.3-4.7c0-3.5,3.8-4.2,6.5-4.2c5.1,0,8.7,1.7,10.6,6.6l16.6-5.1
	c-4-11.4-15-16.2-26.3-16.2c-6.5,0-13.5,1.2-18.8,5c-5.2,3.7-8.4,10.1-8.4,16.5c0,15.7,14.6,19,26.9,21.4c3,0.6,8,1.4,8,5.4
	c0,3.7-5.2,4-7.7,4c-5.8,0-10.2-2.1-11.9-8L222.3,47.8z"/>
<g>
	<path class="st2" d="M200.5,1h-21.2l-20.3,66h16.3l4-13h17.5l3.7,13h20.5L200.5,1z M182.7,39.5l5.4-19.1l5.4,19.1H182.7z"/>
</g>
<g>
	<path class="st2" d="M154.6,4.4C149,1.2,141.8,1,135.5,1h-26.8v66h20.4V43h10.2c6.3,0,12.8-1,17.9-5.1c4.9-4,7.3-9.9,7.3-16.2
		C164.4,14.6,160.7,8.1,154.6,4.4z M134.3,28.8h-5.2V16.1h5.8c4.6,0,9.5,0.5,9.5,6.4C144.4,28.6,138.9,28.8,134.3,28.8z"/>
</g>
</svg>
