<?xml version="1.0" encoding="utf-8"?>
<!-- Generator: Adobe Illustrator 19.2.0, SVG Export Plug-In . SVG Version: 6.00 Build 0)  -->
<svg version="1.1" id="Layer_1" xmlns="http://www.w3.org/2000/svg" xmlns:xlink="http://www.w3.org/1999/xlink" x="0px" y="0px"
	 viewBox="0 0 20 20" style="enable-background:new 0 0 20 20;" xml:space="preserve">
<style type="text/css">
	.st0{fill:#2699fb;}
</style>
<path id="ic_adjust_24px-2" class="st0" d="M10,0C4.5,0,0,4.5,0,10s4.5,10,10,10s10-4.5,10-10C20,4.5,15.5,0,10,0z M10,18
	c-4.4,0-8-3.6-8-8s3.6-8,8-8s8,3.6,8,8C18,14.4,14.4,18,10,18z M13,10c0,1.7-1.3,3-3,3s-3-1.3-3-3s1.3-3,3-3S13,8.3,13,10z"/>
</svg>
